<?xml version="1.0" encoding="UTF-8"?>
<svg width="24px" height="24px" viewBox="0 0 24 24" version="1.1" xmlns="http://www.w3.org/2000/svg" xmlns:xlink="http://www.w3.org/1999/xlink">
    <title>80F6BF6A-FD8C-4129-A3A8-97AD64260E39</title>
    <g id="Icons" stroke="none" stroke-width="1" fill="none" fill-rule="evenodd">
        <g id="White-label-/-Icon-/-Info" fill="#FFFFFF">
            <path d="M12,1 C18.0751322,1 23,5.92486775 23,12 C23,18.0751322 18.0751322,23 12,23 C5.92486775,23 1,18.0751322 1,12 C1,5.92486775 5.92486775,1 12,1 Z M12,3 C7.02943725,3 3,7.02943725 3,12 C3,16.9705627 7.02943725,21 12,21 C16.9705627,21 21,16.9705627 21,12 C21,7.02943725 16.9705627,3 12,3 Z M12,14.6381977 C12.8284271,14.6381977 13.5,15.3097706 13.5,16.1381977 C13.5,16.9666248 12.8284271,17.6381977 12,17.6381977 C11.1715729,17.6381977 10.5,16.9666248 10.5,16.1381977 C10.5,15.3097706 11.1715729,14.6381977 12,14.6381977 Z M11.1311246,6 L12.8991937,6.00076649 C13.1970465,6.01583642 13.4331485,6.24565 13.4651837,6.53272276 L13.4681089,6.63031836 L13.1746565,12.4303184 C13.1601225,12.717579 12.9452359,12.9492126 12.6694251,12.9926667 L12.575423,13 L11.424577,13 C11.1369489,13 10.8947529,12.7970925 10.8374174,12.5238298 L10.8253435,12.4303184 L10.5318911,6.63031836 L10.5311246,6.6 C10.5311246,6.30176624 10.7487142,6.05435325 11.0338015,6.00785299 L11.1311246,6 Z" id="Warning" transform="translate(12.000000, 12.000000) scale(1, -1) translate(-12.000000, -12.000000) "></path>
        </g>
    </g>
</svg>